<svg width="16" height="16" viewBox="0 0 16 16" fill="none" xmlns="http://www.w3.org/2000/svg">
<g clip-path="url(#clip0_93_2)">
<circle cx="8" cy="8" r="7.5" fill="#242424" stroke="white"/>
<path d="M7.83177 3.372C8.23177 3.372 8.53577 3.42 8.74377 3.516C8.95177 3.604 9.13577 3.704 9.29577 3.816C9.39177 3.872 9.46777 3.916 9.52377 3.948C9.58777 3.972 9.64777 3.984 9.70377 3.984C9.78377 3.984 9.83977 3.94 9.87177 3.852C9.91177 3.764 9.94377 3.632 9.96777 3.456H10.2438C10.2358 3.592 10.2238 3.756 10.2078 3.948C10.1998 4.132 10.1918 4.38 10.1838 4.692C10.1838 4.996 10.1838 5.4 10.1838 5.904H9.90777C9.88377 5.52 9.79977 5.152 9.65577 4.8C9.51177 4.448 9.29977 4.16 9.01977 3.936C8.74777 3.712 8.38777 3.6 7.93977 3.6C7.51577 3.6 7.16377 3.728 6.88377 3.984C6.61177 4.24 6.47577 4.576 6.47577 4.992C6.47577 5.352 6.56777 5.656 6.75177 5.904C6.93577 6.144 7.17977 6.364 7.48377 6.564C7.79577 6.756 8.13177 6.964 8.49177 7.188C8.90777 7.444 9.27577 7.7 9.59577 7.956C9.92377 8.204 10.1798 8.48 10.3638 8.784C10.5558 9.088 10.6518 9.456 10.6518 9.888C10.6518 10.4 10.5358 10.824 10.3038 11.16C10.0718 11.496 9.76377 11.748 9.37977 11.916C8.99577 12.084 8.57177 12.168 8.10777 12.168C7.68377 12.168 7.34777 12.12 7.09977 12.024C6.85177 11.928 6.63977 11.828 6.46377 11.724C6.28777 11.612 6.15177 11.556 6.05577 11.556C5.97577 11.556 5.91577 11.6 5.87577 11.688C5.84377 11.776 5.81577 11.908 5.79177 12.084H5.51577C5.53177 11.916 5.53977 11.72 5.53977 11.496C5.54777 11.264 5.55177 10.964 5.55177 10.596C5.55977 10.228 5.56377 9.764 5.56377 9.204H5.83977C5.87177 9.684 5.95977 10.132 6.10377 10.548C6.25577 10.964 6.48377 11.3 6.78777 11.556C7.09977 11.804 7.51177 11.928 8.02377 11.928C8.28777 11.928 8.53577 11.876 8.76777 11.772C9.00777 11.66 9.20377 11.488 9.35577 11.256C9.50777 11.016 9.58377 10.708 9.58377 10.332C9.58377 10.004 9.50377 9.72 9.34377 9.48C9.19177 9.232 8.97577 9.004 8.69577 8.796C8.41577 8.58 8.08777 8.36 7.71177 8.136C7.33577 7.904 6.98377 7.668 6.65577 7.428C6.32777 7.188 6.06377 6.912 5.86377 6.6C5.67177 6.28 5.57577 5.896 5.57577 5.448C5.57577 4.976 5.67977 4.588 5.88777 4.284C6.10377 3.972 6.38377 3.744 6.72777 3.6C7.07177 3.448 7.43977 3.372 7.83177 3.372Z" fill="white"/>
</g>
<defs>
<clipPath id="clip0_93_2">
<rect width="16" height="16" fill="white"/>
</clipPath>
</defs>
</svg>
